# xmcd
#
# Track frame offsets:
#  150
#  16630
#  35259
#  66840
#  93301
#  117844
#  137305
#  161326
#  174243
#  219617
#  236466
#  252695
#
# Disc length: 3649 seconds
#
# Revision: 0
# Processed by: cddbd v1.4PL0 Copyright (c) Steve Scherf et al.
# Submitted via: AltoMP3_Maker 3.0
#
DISCID=910e3f0c
DTITLE=Alex "A" And T.N.T. - Walking Your Way
DYEAR=1900
DGENRE=
TTITLE0=Wild Kiss
TTITLE1=Trasto's Blues
TTITLE2=Walking Your Way
TTITLE3=Rock Me Baby
TTITLE4=Five Long Years
TTITLE5=Sax Swing
TTITLE6=Midnight Train
TTITLE7=The Martian Twist
TTITLE8=Tin Pan Alley
TTITLE9=Jumping
TTITLE10=Whole Lotta Shaking
TTITLE11=Trust My Baby
EXTD=
EXTT0=
EXTT1=
EXTT2=
EXTT3=
EXTT4=
EXTT5=
EXTT6=
EXTT7=
EXTT8=
EXTT9=
EXTT10=
EXTT11=
PLAYORDER=
